HIERARCHY
ROOT pelvis
{
	OFFSET 0.003123 -0.351407 0.012037
	CHANNELS 6 Xposition Yposition Zposition Zrotation Yrotation Xrotation 
	JOINT left_hip
	{
		OFFSET 0.058189 -0.092763 -0.026001
		CHANNELS 3 Zrotation Yrotation Xrotation
		JOINT left_knee
		{
			OFFSET 0.054695 -0.378753 -0.009396
			CHANNELS 3 Zrotation Yrotation Xrotation
			JOINT left_ankle
			{
				OFFSET -0.043453 -0.403059 -0.031876
				CHANNELS 3 Zrotation Yrotation Xrotation
				JOINT left_foot
				{
					OFFSET 0.047257 -0.057997 0.118216
					CHANNELS 3 Zrotation Yrotation Xrotation
					End Site
					{
						OFFSET 0.000000 0.000000 0.000000
					}
				}
			}
		}
	}
	JOINT right_hip
	{
		OFFSET -0.063267 -0.103908 -0.021250
		CHANNELS 3 Zrotation Yrotation Xrotation
		JOINT right_knee
		{
			OFFSET -0.044210 -0.362380 -0.016824
			CHANNELS 3 Zrotation Yrotation Xrotation
			JOINT right_ankle
			{
				OFFSET 0.015417 -0.410728 -0.020192
				CHANNELS 3 Zrotation Yrotation Xrotation
				JOINT right_foot
				{
					OFFSET -0.038812 -0.058328 0.119049
					CHANNELS 3 Zrotation Yrotation Xrotation
					End Site
					{
						OFFSET 0.000000 0.000000 0.000000
					}
				}
			}
		}
	}
	JOINT spine_1
	{
		OFFSET -0.002763 0.109891 -0.027618
		CHANNELS 3 Zrotation Yrotation Xrotation
		JOINT spine_2
		{
			OFFSET 0.009448 0.131853 -0.005940
			CHANNELS 3 Zrotation Yrotation Xrotation
			JOINT spine_3
			{
				OFFSET -0.011330 0.052235 0.028447
				CHANNELS 3 Zrotation Yrotation Xrotation
				JOINT neck
				{
					OFFSET -0.012164 0.165167 -0.031615
					CHANNELS 3 Zrotation Yrotation Xrotation
					JOINT head
					{
						OFFSET 0.024783 0.160452 0.020737
						CHANNELS 3 Zrotation Yrotation Xrotation
						End Site
						{
							OFFSET 0.000000 0.000000 0.000000
						}
					}
				}
				JOINT left_collar
				{
					OFFSET 0.046364 0.084944 -0.007220
					CHANNELS 3 Zrotation Yrotation Xrotation
					JOINT left_shoulder
					{
						OFFSET 0.119239 0.057728 -0.015461
						CHANNELS 3 Zrotation Yrotation Xrotation
						JOINT left_elbow
						{
							OFFSET 0.254123 -0.072151 -0.042459
							CHANNELS 3 Zrotation Yrotation Xrotation
							JOINT left_wrist
							{
								OFFSET 0.251987 0.023221 -0.002472
								CHANNELS 3 Zrotation Yrotation Xrotation
								JOINT left_index_1
								{
									OFFSET 0.101902 -0.008688 0.019351
									CHANNELS 3 Zrotation Yrotation Xrotation
									JOINT left_index_2
									{
										OFFSET 0.030149 -0.011154 0.001151
										CHANNELS 3 Zrotation Yrotation Xrotation
										JOINT left_index_3
										{
											OFFSET 0.006504 -0.021577 -0.002433
											CHANNELS 3 Zrotation Yrotation Xrotation
											End Site
											{
												OFFSET 0.000000 0.000000 0.000000
											}
										}
									}
								}
								JOINT left_middle_1
								{
									OFFSET 0.109398 -0.006328 -0.003981
									CHANNELS 3 Zrotation Yrotation Xrotation
									JOINT left_middle_2
									{
										OFFSET 0.026472 -0.015218 -0.004641
										CHANNELS 3 Zrotation Yrotation Xrotation
										JOINT left_middle_3
										{
											OFFSET 0.005022 -0.023347 -0.001911
											CHANNELS 3 Zrotation Yrotation Xrotation
											End Site
											{
												OFFSET 0.000000 0.000000 0.000000
											}
										}
									}
								}
								JOINT left_pinky_1
								{
									OFFSET 0.084047 -0.014539 -0.043750
									CHANNELS 3 Zrotation Yrotation Xrotation
									JOINT left_pinky_2
									{
										OFFSET 0.012124 -0.014448 -0.005375
										CHANNELS 3 Zrotation Yrotation Xrotation
										JOINT left_pinky_3
										{
											OFFSET 0.003798 -0.018853 0.000167
											CHANNELS 3 Zrotation Yrotation Xrotation
											End Site
											{
												OFFSET 0.000000 0.000000 0.000000
											}
										}
									}
								}
								JOINT left_ring_1
								{
									OFFSET 0.097444 -0.009268 -0.027345
									CHANNELS 3 Zrotation Yrotation Xrotation
									JOINT left_ring_2
									{
										OFFSET 0.023561 -0.016057 -0.001895
										CHANNELS 3 Zrotation Yrotation Xrotation
										JOINT left_ring_3
										{
											OFFSET 0.004257 -0.023548 0.000814
											CHANNELS 3 Zrotation Yrotation Xrotation
											End Site
											{
												OFFSET 0.000000 0.000000 0.000000
											}
										}
									}
								}
								JOINT left_thumb_1
								{
									OFFSET 0.040636 -0.017977 0.025611
									CHANNELS 3 Zrotation Yrotation Xrotation
									JOINT left_thumb_2
									{
										OFFSET 0.021637 -0.017639 0.011623
										CHANNELS 3 Zrotation Yrotation Xrotation
										JOINT left_thumb_3
										{
											OFFSET 0.024002 -0.008356 0.006548
											CHANNELS 3 Zrotation Yrotation Xrotation
											End Site
											{
												OFFSET 0.000000 0.000000 0.000000
											}
										}
									}
								}
							}
						}
					}
				}
				JOINT right_collar
				{
					OFFSET -0.047695 0.084339 -0.013400
					CHANNELS 3 Zrotation Yrotation Xrotation
					JOINT right_shoulder
					{
						OFFSET -0.102578 0.053524 -0.012669
						CHANNELS 3 Zrotation Yrotation Xrotation
						JOINT right_elbow
						{
							OFFSET -0.271150 -0.036492 -0.026467
							CHANNELS 3 Zrotation Yrotation Xrotation
							JOINT right_wrist
							{
								OFFSET -0.249267 -0.004533 -0.015325
								CHANNELS 3 Zrotation Yrotation Xrotation
								JOINT right_index_1
								{
									OFFSET -0.099881 -0.011783 0.019600
									CHANNELS 3 Zrotation Yrotation Xrotation
									JOINT right_index_2
									{
										OFFSET -0.030148 -0.011154 0.001151
										CHANNELS 3 Zrotation Yrotation Xrotation
										JOINT right_index_3
										{
											OFFSET -0.006505 -0.021577 -0.002432
											CHANNELS 3 Zrotation Yrotation Xrotation
											End Site
											{
												OFFSET 0.000000 0.000000 0.000000
											}
										}
									}
								}
								JOINT right_middle_1
								{
									OFFSET -0.107376 -0.009422 -0.003734
									CHANNELS 3 Zrotation Yrotation Xrotation
									JOINT right_middle_2
									{
										OFFSET -0.026472 -0.015218 -0.004641
										CHANNELS 3 Zrotation Yrotation Xrotation
										JOINT right_middle_3
										{
											OFFSET -0.005022 -0.023347 -0.001911
											CHANNELS 3 Zrotation Yrotation Xrotation
											End Site
											{
												OFFSET 0.000000 0.000000 0.000000
											}
										}
									}
								}
								JOINT right_pinky_1
								{
									OFFSET -0.082027 -0.017634 -0.043503
									CHANNELS 3 Zrotation Yrotation Xrotation
									JOINT right_pinky_2
									{
										OFFSET -0.012123 -0.014448 -0.005374
										CHANNELS 3 Zrotation Yrotation Xrotation
										JOINT right_pinky_3
										{
											OFFSET -0.003798 -0.018852 0.000167
											CHANNELS 3 Zrotation Yrotation Xrotation
											End Site
											{
												OFFSET 0.000000 0.000000 0.000000
											}
										}
									}
								}
								JOINT right_ring_1
								{
									OFFSET -0.095423 -0.012362 -0.027099
									CHANNELS 3 Zrotation Yrotation Xrotation
									JOINT right_ring_2
									{
										OFFSET -0.023561 -0.016057 -0.001895
										CHANNELS 3 Zrotation Yrotation Xrotation
										JOINT right_ring_3
										{
											OFFSET -0.004257 -0.023548 0.000816
											CHANNELS 3 Zrotation Yrotation Xrotation
											End Site
											{
												OFFSET 0.000000 0.000000 0.000000
											}
										}
									}
								}
								JOINT right_thumb_1
								{
									OFFSET -0.038613 -0.021074 0.025861
									CHANNELS 3 Zrotation Yrotation Xrotation
									JOINT right_thumb_2
									{
										OFFSET -0.021636 -0.017639 0.011623
										CHANNELS 3 Zrotation Yrotation Xrotation
										JOINT right_thumb_3
										{
											OFFSET -0.024004 -0.008353 0.006547
											CHANNELS 3 Zrotation Yrotation Xrotation
											End Site
											{
												OFFSET 0.000000 0.000000 0.000000
											}
										}
									}
								}
							}
						}
					}
				}
			}
		}
	}
}
MOTION
Frames: 7
Frame Time: 0.050000
0.101316 0.939973 -0.072006 -5.195840 3.075907 -13.394760 -0.691069 2.807894 19.954161 1.051770 -0.607893 4.453621 7.229727 -8.283420 -24.312269 0.000000 0.000000 0.000000 -16.737420 0.127110 -1.122359 13.061302 -2.484367 20.116263 -11.074264 -14.905834 -23.417349 0.000000 0.000000 0.000000 -4.396188 -0.635903 9.408415 -1.437330 1.047140 0.950355 8.579939 -2.222795 12.365550 4.310300 -1.708242 5.257915 0.000000 0.000000 0.000000 -8.054074 -6.959069 3.147253 -56.327676 1.163621 -9.667772 13.173822 -44.836480 -0.417526 -2.058649 -1.576456 -3.617443 -10.458305 -2.108861 -0.088084 24.792578 -3.930327 -21.580583 0.000000 0.000000 0.000000 -5.934815 -13.868267 -8.193276 11.857848 -2.934709 -18.229969 0.000000 0.000000 0.000000 22.663058 -19.277623 -26.385058 0.015567 -2.122430 -9.196630 0.000000 0.000000 0.000000 -2.176767 -13.455940 -9.230540 7.760719 -3.598466 -28.847961 0.000000 0.000000 0.000000 20.415467 15.285774 4.616265 -18.661068 -7.410306 3.413515 0.000000 0.000000 0.000000 6.078638 5.232767 2.310760 47.652066 6.868520 -3.587265 -8.058847 34.437295 -2.633496 20.039797 -3.122315 -13.775153 9.298670 -6.195668 2.211946 39.450252 -0.954983 1.500806 0.000000 0.000000 0.000000 29.040563 -2.345181 -2.972372 20.441266 13.276332 -24.614895 0.000000 0.000000 0.000000 21.705782 6.783859 -13.284624 2.041215 0.342586 -1.091457 0.000000 0.000000 0.000000 36.910005 0.908432 -0.765761 -0.703155 8.127753 -24.839365 0.000000 0.000000 0.000000 -5.333045 -24.762409 20.431881 -9.800784 5.984397 -5.117231 0.000000 0.000000 0.000000 
0.100374 0.952383 -0.033730 -3.121179 7.357505 -14.912459 -2.478877 2.221619 14.554140 3.071064 -1.818905 11.142204 4.382681 -10.995972 -18.675157 0.000000 0.000000 0.000000 -10.090419 0.074477 -4.080187 6.081591 -1.327659 26.002474 -4.240764 -5.575073 -6.603699 0.000000 0.000000 0.000000 -8.481944 -0.628840 12.935889 -2.841509 0.917245 -3.489056 12.556319 -1.039297 21.558775 4.978325 -0.933213 0.215401 0.000000 0.000000 0.000000 -11.431905 -10.075007 4.480772 -50.721287 -11.997897 -7.554055 13.648344 -35.759935 -0.538822 -21.909164 -9.224838 1.184174 -103.063400 41.331597 -13.689683 26.618687 -36.188867 -124.431437 0.000000 0.000000 0.000000 -111.140105 -11.432362 -13.466415 73.982138 25.897831 -70.581549 0.000000 0.000000 0.000000 -69.894149 -57.722398 -45.469198 59.818153 -6.428398 22.849233 0.000000 0.000000 0.000000 -98.508755 -52.918182 2.508317 83.590872 1.018186 12.468176 0.000000 0.000000 0.000000 -19.575402 0.993582 9.961321 68.955664 26.855596 9.021403 0.000000 0.000000 0.000000 7.277238 8.535415 4.621135 45.987745 14.347723 -1.327240 -12.058502 28.228880 -2.563865 61.935747 3.137356 5.270066 -113.570159 -17.590229 141.838894 122.348797 2.687199 -7.661786 0.000000 0.000000 0.000000 159.831424 -19.755864 -41.717482 -41.402905 32.429996 -138.147527 0.000000 0.000000 0.000000 -7.448111 28.259801 -57.447960 -25.078513 -1.180571 20.668673 0.000000 0.000000 0.000000 27.271511 45.621637 -41.248854 -52.842429 -9.678736 26.243542 0.000000 0.000000 0.000000 -23.813185 -26.218195 52.834221 -55.360899 -17.144455 -5.996870 0.000000 0.000000 0.000000 
0.089539 0.938039 0.000587 -1.962730 6.583165 -13.469285 -1.954063 2.074679 13.751839 4.179781 -1.154606 5.804399 1.233428 -13.887056 -14.471510 0.000000 0.000000 0.000000 -9.202677 0.289584 -7.692805 2.843373 -0.288435 27.187415 -0.761556 -2.705855 2.137510 0.000000 0.000000 0.000000 -5.136015 -0.912676 19.308364 -4.340292 0.552500 -8.256175 8.174611 -1.066818 23.889231 7.357713 -0.371681 -4.519868 0.000000 0.000000 0.000000 -8.336915 -11.183516 5.261708 -46.100275 -22.401140 -6.037413 3.483538 -27.524715 1.938163 -39.181962 1.239887 15.334360 166.840466 18.025351 -33.999380 69.711142 -14.246033 -133.509453 0.000000 0.000000 0.000000 -165.501570 9.239557 -34.874041 46.598299 -9.736394 -80.713648 0.000000 0.000000 0.000000 -128.807303 -16.001320 -31.590654 35.878121 -0.429786 -21.749651 0.000000 0.000000 0.000000 -152.973185 -28.234793 6.537552 86.184885 12.844811 -34.027249 0.000000 0.000000 0.000000 -95.823472 -25.585502 13.065898 149.317957 3.977658 54.971988 0.000000 0.000000 0.000000 2.693163 4.707272 2.379881 54.633972 20.276884 1.181472 -0.198506 29.023715 -0.225471 46.751479 15.840612 9.496761 -128.528751 -35.670742 -169.277879 64.702137 51.681549 -42.803141 0.000000 0.000000 0.000000 164.775605 -40.511856 -61.955083 -31.653998 25.284155 -115.024089 0.000000 0.000000 0.000000 78.803327 50.801973 -45.364691 -64.716590 8.257383 17.963699 0.000000 0.000000 0.000000 130.588171 34.648688 2.456237 -132.533624 0.596651 -1.838352 0.000000 0.000000 0.000000 19.660980 -49.727162 64.606293 -99.862740 -36.717343 32.947315 0.000000 0.000000 0.000000 
0.094250 0.933365 -0.011292 -0.928705 3.119002 -11.041380 -1.194179 2.212646 14.723414 0.542824 0.430270 -4.262714 -2.284328 -13.804260 -8.025069 0.000000 0.000000 0.000000 -8.551554 0.379074 -5.285557 -0.670713 0.634018 14.769061 0.506389 -1.197285 3.613101 0.000000 0.000000 0.000000 -0.378683 -0.959768 14.263451 -6.197053 0.637430 -10.742021 4.980890 -2.288930 26.284327 6.534383 -1.485041 0.995731 0.000000 0.000000 0.000000 -13.053692 -5.544206 2.187507 -41.065086 -18.904153 -6.331191 -0.719314 -27.873247 3.075525 -22.530687 -8.315932 16.265599 -120.087287 59.945920 -23.517767 68.392778 -6.957068 -146.269315 0.000000 0.000000 0.000000 -115.523791 22.528781 -29.324866 55.690996 3.653056 -91.775172 0.000000 0.000000 0.000000 -105.573822 -15.731476 -32.847979 56.762228 0.520170 -7.921885 0.000000 0.000000 0.000000 -114.476423 -17.628423 -7.053083 93.345919 9.801185 -19.336679 0.000000 0.000000 0.000000 -7.824052 -2.559669 0.708924 40.115370 27.625611 2.489074 0.000000 0.000000 0.000000 0.177016 7.271445 3.745953 55.804325 19.147793 0.040806 7.343765 32.754606 1.410692 3.053020 11.212608 4.039993 47.647919 -27.378741 0.749087 26.660896 12.738032 -27.151005 0.000000 0.000000 0.000000 72.403088 0.488643 -10.551286 -22.928357 2.657578 -14.090609 0.000000 0.000000 0.000000 69.406802 39.152231 -32.281077 -39.862696 6.275315 32.697451 0.000000 0.000000 0.000000 71.799441 28.565428 -3.883778 -28.497620 0.639800 8.507221 0.000000 0.000000 0.000000 8.051510 -25.308472 25.002260 -32.858580 -4.578418 -8.068113 0.000000 0.000000 0.000000 
0.092836 0.920874 -0.011292 -2.130214 1.136465 -11.985931 2.087437 1.475020 12.043923 -3.441331 0.041700 2.895602 1.457071 -11.530808 -14.141660 0.000000 0.000000 0.000000 -7.222086 0.393544 -4.056372 -1.523319 0.707880 12.334866 2.163853 1.237784 4.557630 0.000000 0.000000 0.000000 1.258006 -1.034856 13.846536 -7.557975 0.831734 -11.886760 6.779780 -2.360682 28.342067 6.469633 -1.110815 -0.746332 0.000000 0.000000 0.000000 -10.305443 -9.412008 4.787664 -46.967194 -15.188443 -6.774963 -2.268396 -30.355439 3.871734 2.350529 -13.239778 7.927016 -20.620949 4.214506 1.363346 -14.462264 -1.268152 -7.500037 0.000000 0.000000 0.000000 -36.494378 -3.604482 -6.816550 -5.043395 -1.884567 -11.651842 0.000000 0.000000 0.000000 -43.537282 -25.804133 -26.010712 24.849801 -1.259907 -6.211428 0.000000 0.000000 0.000000 -37.821700 -16.584097 -6.739418 -2.589440 -1.376920 -22.185081 0.000000 0.000000 0.000000 -2.360928 12.976299 12.353815 3.404610 -3.536191 -2.306634 0.000000 0.000000 0.000000 2.106423 6.639193 3.360502 54.968603 16.380237 -1.367636 10.075550 34.989810 2.235375 -4.545301 12.452962 9.639060 22.044869 -9.796263 2.407749 17.603729 4.985555 -15.522250 0.000000 0.000000 0.000000 29.647662 6.693436 -6.458819 20.212654 3.124473 -17.179420 0.000000 0.000000 0.000000 8.788611 41.617585 -39.958917 7.217386 -0.045813 10.827990 0.000000 0.000000 0.000000 29.757199 24.373886 -9.576877 11.384516 1.469491 -12.071097 0.000000 0.000000 0.000000 -0.527516 -20.156647 18.597198 -5.544123 6.111081 -4.052852 0.000000 0.000000 0.000000 
0.093307 0.923936 -0.024490 -3.650937 -1.060925 -12.173150 1.765335 1.771439 13.692371 -0.046598 0.128014 -1.155512 1.205953 -9.601401 -12.459040 0.000000 0.000000 0.000000 -5.740913 0.405842 -3.450874 -0.673353 0.452779 9.321910 3.870120 2.431549 7.214165 0.000000 0.000000 0.000000 1.006744 -1.131829 14.874769 -6.984325 0.484570 -11.849900 7.703100 -1.409384 29.013427 4.938614 -0.757020 -1.189386 0.000000 0.000000 0.000000 -11.312571 -9.407425 4.864425 -45.647037 -18.773078 -6.324000 -3.958166 -27.286820 3.819251 5.295183 -14.107593 10.738108 -19.276357 7.437290 1.814106 -7.978479 -1.083775 -5.388561 0.000000 0.000000 0.000000 -25.471073 1.059388 -4.274427 -15.843580 -2.043589 -13.878710 0.000000 0.000000 0.000000 -10.973563 -28.602654 -20.316707 -31.833202 -2.103735 -23.086829 0.000000 0.000000 0.000000 -23.072610 -9.158742 -5.049112 -25.889987 -5.355225 -24.431384 0.000000 0.000000 0.000000 4.721033 17.230887 14.832106 -0.520407 -11.757178 -3.548291 0.000000 0.000000 0.000000 6.163265 6.699866 3.229450 55.077949 18.256506 -0.822071 5.844724 34.260896 1.095449 -9.558641 5.863296 9.870363 22.315415 -16.412187 3.288351 32.467075 0.843137 -10.246910 0.000000 0.000000 0.000000 31.496568 -2.555475 -4.598430 34.022141 2.855255 -15.354547 0.000000 0.000000 0.000000 14.591205 32.072617 -29.488063 21.108654 1.005747 -8.338559 0.000000 0.000000 0.000000 30.595146 16.775073 -6.936228 32.785774 6.262061 -18.122373 0.000000 0.000000 0.000000 4.161891 -28.419944 26.344233 -18.082885 12.752331 -12.309062 0.000000 0.000000 0.000000 
0.080587 0.919383 -0.020531 -2.655606 -2.905412 -13.346766 0.509284 2.134850 14.721050 1.683329 -0.169469 0.156246 2.677274 -7.396931 -14.438919 0.000000 0.000000 0.000000 -6.794290 0.387499 -2.962259 1.046549 0.278953 10.428275 3.781394 4.047440 4.553190 0.000000 0.000000 0.000000 -0.738401 -1.107762 16.111064 -7.588360 0.993666 -10.708747 8.581525 -2.286239 28.909357 5.089924 -0.793619 -1.280371 0.000000 0.000000 0.000000 -11.429628 -10.796708 5.987160 -44.067344 -17.591734 -6.263241 -5.886792 -30.629378 4.885723 6.794881 -10.515106 13.709839 -15.695176 3.583924 1.100879 -11.816492 0.888140 -2.389086 0.000000 0.000000 0.000000 -19.240152 -6.107867 -5.613589 -18.210125 -2.207962 -14.755294 0.000000 0.000000 0.000000 9.886123 -30.681518 -27.910034 -28.812286 -5.515041 -23.995507 0.000000 0.000000 0.000000 -13.955698 -15.235712 -7.653904 -26.874313 -6.112725 -26.235829 0.000000 0.000000 0.000000 3.517953 17.089787 15.053809 -0.189682 -6.264560 -1.944904 0.000000 0.000000 0.000000 6.041945 8.300275 4.019899 53.782669 17.591171 -1.529069 6.295158 34.307549 1.113438 -9.861450 8.947096 10.431657 18.265407 -14.163023 3.199213 16.210419 0.554707 -6.748628 0.000000 0.000000 0.000000 19.791786 4.400131 -4.855623 28.278662 3.315759 -16.871740 0.000000 0.000000 0.000000 -9.832834 31.732569 -34.249039 19.554648 3.193557 -14.711650 0.000000 0.000000 0.000000 16.862677 19.085226 -9.389507 25.736291 4.917427 -17.830975 0.000000 0.000000 0.000000 -0.239898 -27.002026 24.872144 -3.436335 10.709045 -4.905540 0.000000 0.000000 0.000000 
